<svg width="79" height="64" viewBox="0 0 79 64" fill="none" xmlns="http://www.w3.org/2000/svg">
<path d="M0.84 60.1805C0.530667 60.0472 0.437333 59.8258 0.56 59.5165L4.472 50.1325C4.584 49.8712 4.77333 49.7405 5.04 49.7405H5.08C5.34133 49.7458 5.52267 49.8765 5.624 50.1325L9.56 59.5165C9.69333 59.8258 9.60267 60.0472 9.288 60.1805C8.97867 60.3032 8.76 60.2125 8.632 59.9085L7.64 57.5325H2.48L1.496 59.9085C1.37333 60.2178 1.15467 60.3085 0.84 60.1805ZM2.888 56.5245H7.216L5.04 51.3325L2.888 56.5245ZM12.0091 60.2285C11.6731 60.2285 11.5051 60.0605 11.5051 59.7245V52.9885C11.5051 52.6525 11.6731 52.4845 12.0091 52.4845C12.3451 52.4845 12.5131 52.6525 12.5131 52.9885V54.0125C12.8065 53.5165 13.2091 53.1378 13.7211 52.8765C14.2331 52.6152 14.8331 52.4845 15.5211 52.4845C15.8571 52.4845 16.0251 52.6525 16.0251 52.9885C16.0251 53.3245 15.8571 53.4925 15.5211 53.4925C14.5825 53.4925 13.8571 53.6925 13.3451 54.0925C12.8385 54.4925 12.5611 55.0498 12.5131 55.7645V59.7245C12.5131 60.0605 12.3451 60.2285 12.0091 60.2285ZM18.2255 56.7565V57.2765C18.2255 58.0072 18.3668 58.5138 18.6495 58.7965C18.9375 59.0792 19.4495 59.2205 20.1855 59.2205H21.4975C22.1322 59.2205 22.5935 59.1458 22.8815 58.9965C23.1748 58.8472 23.3535 58.5885 23.4175 58.2205C23.4548 58.0605 23.5135 57.9405 23.5935 57.8605C23.6735 57.7805 23.7935 57.7405 23.9535 57.7405C24.1188 57.7405 24.2442 57.7858 24.3295 57.8765C24.4202 57.9618 24.4522 58.0898 24.4255 58.2605C24.3402 58.9272 24.0548 59.4232 23.5695 59.7485C23.0895 60.0685 22.3988 60.2285 21.4975 60.2285H20.1855C19.1668 60.2285 18.4175 59.9885 17.9375 59.5085C17.4575 59.0285 17.2175 58.2845 17.2175 57.2765V55.4525C17.2175 54.4178 17.4575 53.6632 17.9375 53.1885C18.4175 52.7085 19.1668 52.4738 20.1855 52.4845H21.4975C22.5215 52.4845 23.2708 52.7245 23.7455 53.2045C24.2255 53.6792 24.4655 54.4285 24.4655 55.4525V56.2525C24.4655 56.5885 24.2975 56.7565 23.9615 56.7565H18.2255ZM20.1855 53.4925C19.4495 53.4818 18.9375 53.6178 18.6495 53.9005C18.3668 54.1832 18.2255 54.7005 18.2255 55.4525V55.7485H23.4575V55.4525C23.4575 54.7112 23.3162 54.1992 23.0335 53.9165C22.7508 53.6338 22.2388 53.4925 21.4975 53.4925H20.1855ZM27.806 60.2285C27.47 60.2285 27.302 60.0605 27.302 59.7245V52.9885C27.302 52.6525 27.47 52.4845 27.806 52.4845C28.142 52.4845 28.31 52.6525 28.31 52.9885V53.5805C28.838 52.8498 29.726 52.4845 30.974 52.4845H31.422C32.446 52.4845 33.1953 52.7245 33.67 53.2045C34.15 53.6792 34.39 54.4285 34.39 55.4525V59.7245C34.39 60.0605 34.222 60.2285 33.886 60.2285C33.55 60.2285 33.382 60.0605 33.382 59.7245V55.4525C33.382 54.7112 33.238 54.1992 32.95 53.9165C32.6673 53.6338 32.158 53.4925 31.422 53.4925H30.974C30.2113 53.4925 29.5927 53.6045 29.118 53.8285C28.6433 54.0525 28.374 54.4018 28.31 54.8765V59.7245C28.31 60.0605 28.142 60.2285 27.806 60.2285ZM40.0449 60.2285C39.0262 60.2285 38.2769 59.9885 37.7969 59.5085C37.3169 59.0285 37.0769 58.2792 37.0769 57.2605V55.4525C37.0769 54.4285 37.3169 53.6792 37.7969 53.2045C38.2769 52.7245 39.0262 52.4845 40.0449 52.4845H43.3169V49.5805C43.3169 49.2445 43.4849 49.0765 43.8209 49.0765C44.1569 49.0765 44.3249 49.2445 44.3249 49.5805V59.7245C44.3249 60.0605 44.1569 60.2285 43.8209 60.2285C43.4849 60.2285 43.3169 60.0605 43.3169 59.7245V59.2285C43.0822 59.5538 42.7489 59.8018 42.3169 59.9725C41.8849 60.1432 41.3302 60.2285 40.6529 60.2285H40.0449ZM40.0449 59.2205H40.6529C41.4422 59.2205 42.0822 59.1032 42.5729 58.8685C43.0689 58.6285 43.3169 58.2712 43.3169 57.7965V53.4925H40.0449C39.3089 53.4925 38.7969 53.6365 38.5089 53.9245C38.2262 54.2072 38.0849 54.7165 38.0849 55.4525V57.2605C38.0849 57.9965 38.2262 58.5085 38.5089 58.7965C38.7969 59.0792 39.3089 59.2205 40.0449 59.2205ZM49.5988 60.2285C48.7508 60.2285 48.1241 60.0258 47.7188 59.6205C47.3134 59.2152 47.1108 58.5885 47.1108 57.7405C47.1108 56.8872 47.3134 56.2578 47.7188 55.8525C48.1241 55.4472 48.7508 55.2445 49.5988 55.2445H53.1588C53.1374 54.5885 52.9801 54.1325 52.6868 53.8765C52.3988 53.6205 51.9028 53.4925 51.1988 53.4925H50.2708C49.6414 53.4925 49.1774 53.5538 48.8788 53.6765C48.5854 53.7938 48.3961 53.9992 48.3108 54.2925C48.2574 54.4525 48.1908 54.5698 48.1108 54.6445C48.0361 54.7138 47.9214 54.7485 47.7668 54.7485C47.6014 54.7485 47.4708 54.7032 47.3748 54.6125C47.2841 54.5165 47.2521 54.3885 47.2788 54.2285C47.3801 53.6205 47.6761 53.1778 48.1668 52.9005C48.6574 52.6232 49.3588 52.4845 50.2708 52.4845H51.1988C52.2228 52.4845 52.9721 52.7245 53.4468 53.2045C53.9268 53.6792 54.1667 54.4285 54.1667 55.4525V59.7245C54.1667 60.0605 53.9988 60.2285 53.6628 60.2285C53.3268 60.2285 53.1588 60.0605 53.1588 59.7245V59.0685C52.6308 59.8418 51.7428 60.2285 50.4948 60.2285H49.5988ZM49.5988 59.2205H50.4948C50.9748 59.2205 51.4014 59.1698 51.7748 59.0685C52.1534 58.9672 52.4628 58.7992 52.7028 58.5645C52.9481 58.3298 53.1001 58.0125 53.1588 57.6125V56.2525H49.5988C49.0281 56.2525 48.6388 56.3565 48.4308 56.5645C48.2228 56.7725 48.1188 57.1645 48.1188 57.7405C48.1188 58.3112 48.2228 58.7005 48.4308 58.9085C48.6388 59.1165 49.0281 59.2205 49.5988 59.2205ZM59.2734 60.2365C59.1134 60.2365 58.988 60.1938 58.8974 60.1085C58.812 60.0178 58.7694 59.8925 58.7694 59.7325V50.7485H55.4654C55.3054 50.7485 55.18 50.7058 55.0894 50.6205C55.004 50.5298 54.9614 50.4045 54.9614 50.2445C54.9614 50.0845 55.004 49.9618 55.0894 49.8765C55.18 49.7858 55.3054 49.7405 55.4654 49.7405H63.0814C63.2414 49.7405 63.364 49.7858 63.4494 49.8765C63.54 49.9618 63.5854 50.0845 63.5854 50.2445C63.5854 50.4045 63.54 50.5298 63.4494 50.6205C63.364 50.7058 63.2414 50.7485 63.0814 50.7485H59.7774V59.7325C59.7774 59.8872 59.732 60.0098 59.6414 60.1005C59.556 60.1912 59.4334 60.2365 59.2734 60.2365ZM70.1559 52.4845C70.4919 52.4845 70.6599 52.6525 70.6599 52.9885V59.7245C70.6599 60.0605 70.4919 60.2285 70.1559 60.2285C69.8199 60.2285 69.6519 60.0605 69.6519 59.7245V59.1245C69.1292 59.8605 68.2412 60.2285 66.9879 60.2285H66.5399C65.5212 60.2285 64.7719 59.9885 64.2919 59.5085C63.8119 59.0285 63.5719 58.2792 63.5719 57.2605V52.9885C63.5719 52.6525 63.7399 52.4845 64.0759 52.4845C64.4119 52.4845 64.5799 52.6525 64.5799 52.9885V57.2605C64.5799 57.9965 64.7212 58.5085 65.0039 58.7965C65.2919 59.0792 65.8039 59.2205 66.5399 59.2205H66.9879C67.7505 59.2205 68.3692 59.1085 68.8439 58.8845C69.3239 58.6552 69.5932 58.3058 69.6519 57.8365V52.9885C69.6519 52.6525 69.8199 52.4845 70.1559 52.4845ZM74.2747 60.2285C73.9388 60.2285 73.7708 60.0605 73.7708 59.7245V52.9885C73.7708 52.6525 73.9388 52.4845 74.2747 52.4845C74.6108 52.4845 74.7788 52.6525 74.7788 52.9885V54.0125C75.0721 53.5165 75.4748 53.1378 75.9868 52.8765C76.4988 52.6152 77.0988 52.4845 77.7868 52.4845C78.1228 52.4845 78.2908 52.6525 78.2908 52.9885C78.2908 53.3245 78.1228 53.4925 77.7868 53.4925C76.8481 53.4925 76.1228 53.6925 75.6108 54.0925C75.1041 54.4925 74.8268 55.0498 74.7788 55.7645V59.7245C74.7788 60.0605 74.6108 60.2285 74.2747 60.2285Z" fill="#D6D6D6"/>
<path d="M18 12.6062L44.4188 3.06836V12.6062L18 16.8092V12.6062Z" fill="#F3A242"/>
<path d="M18 19.2108L44.4188 15.0078V21.6125L18 24.6146V19.2108Z" fill="#F3A242"/>
<path d="M18 27.0168L44.4188 24.2148V31.2198L18 32.4207V27.0168Z" fill="#F3A242"/>
<path d="M18 34.8219L44.4188 33.6211L44.4188 40.2258H18V34.8219Z" fill="#F3A242"/>
<path d="M44.418 3L60.0291 12.2065V16.8098L44.418 12.6068V3Z" fill="#F3FBFF"/>
<path d="M44.418 15.0078L60.0291 19.2108V25.0149L44.418 21.6125V15.0078Z" fill="#F3FBFF"/>
<path d="M44.418 24.2148L60.0291 27.4171V32.4207L44.418 31.2198V24.2148Z" fill="#F3FBFF"/>
<path d="M44.418 33.6211L60.0291 34.822V40.2258H44.418V33.6211Z" fill="#F3FBFF"/>
</svg>
