<svg width="25" height="25" viewBox="0 0 25 25" fill="none" xmlns="http://www.w3.org/2000/svg">
<g clip-path="url(#clip0_1497_82)">
<path d="M23 6.64077V18.3595C23 19.0246 22.4594 19.5314 21.75 19.5314H20.5V8.89605L13 13.9468L5.5 8.89605V19.5314H4.25C3.54062 19.5314 3 19.0246 3 18.3595V6.64077C3 6.30796 3.13375 6.01499 3.35813 5.80757C3.47498 5.69796 3.61416 5.61149 3.76737 5.55331C3.92059 5.49513 4.08471 5.46642 4.25 5.4689H4.66688L13 11.1332L21.3331 5.4689H21.75C22.105 5.4689 22.4175 5.59429 22.6419 5.80757C22.8662 6.01499 23 6.30796 23 6.64077Z" fill="#CECECE"/>
</g>
<defs>
<clipPath id="clip0_1497_82">
<rect width="20" height="15" fill="white" transform="translate(3 5)"/>
</clipPath>
</defs>
</svg>
