<svg width="25" height="25" viewBox="0 0 25 25" fill="none" xmlns="http://www.w3.org/2000/svg">
<g clip-path="url(#clip0_1497_81)">
<path d="M12.4992 5.10645C11.7909 5.10645 11.0985 5.31181 10.5096 5.69658C9.92065 6.08135 9.46163 6.62824 9.19058 7.26808C8.91952 7.90793 8.8486 8.612 8.98678 9.29125C9.12497 9.97051 9.46605 10.5944 9.96689 11.0842C10.4677 11.5739 11.1059 11.9074 11.8006 12.0425C12.4952 12.1776 13.2153 12.1083 13.8697 11.8432C14.5241 11.5782 15.0834 11.1294 15.4769 10.5535C15.8704 9.97769 16.0805 9.30068 16.0805 8.60811C16.0805 7.67941 15.7032 6.78875 15.0315 6.13206C14.3599 5.47537 13.449 5.10645 12.4992 5.10645V5.10645ZM12.4992 10.8876C12.0381 10.8876 11.5874 10.7539 11.204 10.5034C10.8207 10.2529 10.5219 9.89693 10.3454 9.48042C10.169 9.0639 10.1228 8.60558 10.2128 8.16341C10.3027 7.72125 10.5247 7.31509 10.8508 6.9963C11.1768 6.67752 11.5922 6.46042 12.0444 6.37247C12.4966 6.28451 12.9654 6.32965 13.3914 6.50218C13.8173 6.67471 14.1814 6.96687 14.4376 7.34172C14.6937 7.71657 14.8305 8.15728 14.8305 8.60811C14.8288 9.2116 14.5825 9.78982 14.1455 10.216C13.7084 10.6421 13.1164 10.8814 12.4992 10.8814V10.8876Z" fill="#CECECE"/>
<path d="M12.4992 2.22168C10.5525 2.22327 8.68546 2.97804 7.30597 4.32115C5.92649 5.66425 5.14663 7.48655 5.13672 9.39001C5.13672 12.2439 6.77422 14.6333 7.97422 16.375L8.19297 16.6928C9.38689 18.3847 10.6677 20.0164 12.0305 21.5817L12.5055 22.1256L12.9805 21.5817C14.3431 20.0163 15.6239 18.3846 16.818 16.6928L17.0367 16.3689C18.2305 14.6272 19.868 12.2439 19.868 9.39001C19.8581 7.48549 19.0773 5.66227 17.6965 4.319C16.3157 2.97572 14.4471 2.22166 12.4992 2.22168V2.22168ZM15.993 15.6661L15.768 15.99C14.693 17.5667 13.268 19.3328 12.4992 20.2067C11.7617 19.3328 10.3055 17.5667 9.23047 15.99L9.01172 15.6661C7.90547 14.0528 6.38672 11.8467 6.38672 9.36557C6.38672 8.5807 6.54482 7.80352 6.85201 7.0784C7.15919 6.35327 7.60943 5.69441 8.17703 5.13943C8.74463 4.58444 9.41846 4.1442 10.1601 3.84385C10.9017 3.54349 11.6965 3.3889 12.4992 3.3889C13.3019 3.3889 14.0968 3.54349 14.8384 3.84385C15.58 4.1442 16.2538 4.58444 16.8214 5.13943C17.389 5.69441 17.8393 6.35327 18.1464 7.0784C18.4536 7.80352 18.6117 8.5807 18.6117 9.36557C18.6117 11.8711 17.0992 14.0772 15.993 15.6661V15.6661Z" fill="#CECECE"/>
</g>
<defs>
<clipPath id="clip0_1497_81">
<rect width="15" height="22" fill="white" transform="translate(5 1)"/>
</clipPath>
</defs>
</svg>
