<svg width="25" height="25" viewBox="0 0 25 25" fill="none" xmlns="http://www.w3.org/2000/svg">
<g clip-path="url(#clip0_1497_79)">
<path d="M20.2106 21.375H20.088C5.91733 20.5601 3.90531 8.60337 3.62406 4.95433C3.60139 4.67061 3.63494 4.38521 3.72276 4.11448C3.81059 3.84375 3.95097 3.59301 4.13587 3.37662C4.32077 3.16024 4.54655 2.98247 4.80027 2.85349C5.05399 2.72451 5.33066 2.64687 5.61444 2.625H9.588C9.87686 2.62472 10.1592 2.71119 10.3983 2.87319C10.6375 3.0352 10.8225 3.26529 10.9293 3.53365L12.0255 6.23077C12.131 6.49294 12.1572 6.78035 12.1008 7.05728C12.0444 7.33421 11.9079 7.58847 11.7082 7.78846L10.1721 9.33894C10.4121 10.7025 11.0651 11.9594 12.0427 12.9396C13.0204 13.9199 14.2756 14.5762 15.6385 14.8197L17.2034 13.2692C17.4064 13.0717 17.663 12.9384 17.9413 12.8858C18.2196 12.8332 18.5072 12.8638 18.7683 12.9736L21.487 14.0625C21.7514 14.1728 21.9769 14.3592 22.1348 14.5981C22.2928 14.837 22.3761 15.1175 22.3741 15.4038V19.2115C22.3741 19.7853 22.1461 20.3356 21.7404 20.7413C21.3347 21.1471 20.7844 21.375 20.2106 21.375ZM5.78752 4.06731C5.59626 4.06731 5.41283 4.14329 5.27759 4.27853C5.14234 4.41377 5.06636 4.5972 5.06636 4.78846V4.84615C5.39809 9.11539 7.5255 19.2115 20.1673 19.9327C20.2621 19.9385 20.357 19.9256 20.4468 19.8947C20.5365 19.8638 20.6193 19.8154 20.6903 19.7525C20.7613 19.6895 20.8192 19.6131 20.8606 19.5277C20.9021 19.4423 20.9262 19.3496 20.9317 19.2548V15.4038L18.213 14.3149L16.1433 16.3702L15.7971 16.3269C9.52309 15.5409 8.67213 9.26683 8.67213 9.20192L8.62886 8.85577L10.6769 6.78606L9.59521 4.06731H5.78752Z" fill="#CECECE"/>
</g>
<defs>
<clipPath id="clip0_1497_79">
<rect width="20" height="20" fill="white" transform="translate(3 2)"/>
</clipPath>
</defs>
</svg>
