<svg width="25" height="24" viewBox="0 0 25 24" fill="none" xmlns="http://www.w3.org/2000/svg">
<path d="M13.5 22C12.8833 22 12.279 21.9373 11.687 21.812C11.095 21.6867 10.516 21.5077 9.94999 21.275C9.59999 21.125 9.40432 20.875 9.36299 20.525C9.32165 20.175 9.44232 19.8583 9.72499 19.575C9.84165 19.4583 9.99165 19.3833 10.175 19.35C10.3583 19.3167 10.5333 19.3417 10.7 19.425C11.1333 19.625 11.5877 19.771 12.063 19.863C12.5383 19.955 13.0173 20.0007 13.5 20C15.45 20 17.1043 19.3207 18.463 17.962C19.8217 16.6033 20.5007 14.9493 20.5 13C20.5 11.05 19.8207 9.39565 18.462 8.03699C17.1033 6.67832 15.4493 5.99932 13.5 5.99999H13.35L14.225 6.87499C14.4083 7.05832 14.5 7.29165 14.5 7.57499C14.5 7.85832 14.4083 8.09165 14.225 8.27499C14.025 8.47499 13.7833 8.57499 13.5 8.57499C13.2167 8.57499 12.9833 8.47499 12.8 8.27499L10.2 5.69999C10.1167 5.59999 10.05 5.49165 9.99999 5.37499C9.94999 5.25832 9.92499 5.13332 9.92499 4.99999C9.92499 4.86665 9.94999 4.73732 9.99999 4.61199C10.05 4.48665 10.1167 4.38265 10.2 4.29999L12.8 1.69999C12.9833 1.51665 13.2167 1.42499 13.5 1.42499C13.7833 1.42499 14.025 1.51665 14.225 1.69999C14.4083 1.89999 14.5 2.14165 14.5 2.42499C14.5 2.70832 14.4083 2.94165 14.225 3.12499L13.35 3.99999H13.5C14.75 3.99999 15.921 4.23765 17.013 4.71299C18.105 5.18832 19.055 5.82999 19.863 6.63799C20.671 7.44599 21.3127 8.39599 21.788 9.48799C22.2633 10.58 22.5007 11.7507 22.5 13C22.5 15.5 21.625 17.625 19.875 19.375C18.125 21.125 16 22 13.5 22ZM7.49999 18.575C7.36665 18.575 7.24165 18.554 7.12499 18.512C7.00832 18.47 6.89999 18.3993 6.79999 18.3L2.19999 13.7C2.09999 13.6 2.02932 13.4917 1.98799 13.375C1.94665 13.2583 1.92565 13.1333 1.92499 13C1.92499 12.8667 1.94599 12.7417 1.98799 12.625C2.02999 12.5083 2.10065 12.4 2.19999 12.3L6.79999 7.69999C6.89999 7.59999 7.00832 7.52899 7.12499 7.48699C7.24165 7.44499 7.36665 7.42432 7.49999 7.42499C7.63332 7.42499 7.75832 7.44599 7.87499 7.48799C7.99165 7.52999 8.09999 7.60065 8.19999 7.69999L12.8 12.3C12.9 12.4 12.971 12.5083 13.013 12.625C13.055 12.7417 13.0757 12.8667 13.075 13C13.075 13.1333 13.0543 13.2583 13.013 13.375C12.9717 13.4917 12.9007 13.6 12.8 13.7L8.19999 18.3C8.09999 18.4 7.99165 18.471 7.87499 18.513C7.75832 18.555 7.63332 18.5757 7.49999 18.575ZM7.49999 16.15L10.65 13L7.49999 9.84999L4.34999 13L7.49999 16.15Z" fill="white"/>
</svg>
