<svg width="79" height="62" viewBox="0 0 79 62" fill="none" xmlns="http://www.w3.org/2000/svg">
<path d="M0.840059 57.1802C0.530726 57.0469 0.437393 56.8255 0.56006 56.5162L4.47206 47.1322C4.58406 46.8709 4.77339 46.7402 5.04006 46.7402H5.08006C5.34139 46.7455 5.52273 46.8762 5.62406 47.1322L9.56006 56.5162C9.69339 56.8255 9.60273 57.0469 9.28806 57.1802C8.97873 57.3029 8.76006 57.2122 8.63206 56.9082L7.64006 54.5322H2.48006L1.49606 56.9082C1.37339 57.2175 1.15473 57.3082 0.840059 57.1802ZM2.88806 53.5242H7.21606L5.04006 48.3322L2.88806 53.5242ZM12.0092 57.2282C11.6732 57.2282 11.5052 57.0602 11.5052 56.7242V49.9882C11.5052 49.6522 11.6732 49.4842 12.0092 49.4842C12.3452 49.4842 12.5132 49.6522 12.5132 49.9882V51.0122C12.8066 50.5162 13.2092 50.1375 13.7212 49.8762C14.2332 49.6149 14.8332 49.4842 15.5212 49.4842C15.8572 49.4842 16.0252 49.6522 16.0252 49.9882C16.0252 50.3242 15.8572 50.4922 15.5212 50.4922C14.5826 50.4922 13.8572 50.6922 13.3452 51.0922C12.8386 51.4922 12.5612 52.0495 12.5132 52.7642V56.7242C12.5132 57.0602 12.3452 57.2282 12.0092 57.2282ZM18.2256 53.7562V54.2762C18.2256 55.0069 18.3669 55.5135 18.6496 55.7962C18.9376 56.0789 19.4496 56.2202 20.1856 56.2202H21.4976C22.1323 56.2202 22.5936 56.1455 22.8816 55.9962C23.1749 55.8469 23.3536 55.5882 23.4176 55.2202C23.4549 55.0602 23.5136 54.9402 23.5936 54.8602C23.6736 54.7802 23.7936 54.7402 23.9536 54.7402C24.1189 54.7402 24.2443 54.7855 24.3296 54.8762C24.4203 54.9615 24.4523 55.0895 24.4256 55.2602C24.3403 55.9269 24.0549 56.4229 23.5696 56.7482C23.0896 57.0682 22.3989 57.2282 21.4976 57.2282H20.1856C19.1669 57.2282 18.4176 56.9882 17.9376 56.5082C17.4576 56.0282 17.2176 55.2842 17.2176 54.2762V52.4522C17.2176 51.4175 17.4576 50.6629 17.9376 50.1882C18.4176 49.7082 19.1669 49.4735 20.1856 49.4842H21.4976C22.5216 49.4842 23.2709 49.7242 23.7456 50.2042C24.2256 50.6789 24.4656 51.4282 24.4656 52.4522V53.2522C24.4656 53.5882 24.2976 53.7562 23.9616 53.7562H18.2256ZM20.1856 50.4922C19.4496 50.4815 18.9376 50.6175 18.6496 50.9002C18.3669 51.1829 18.2256 51.7002 18.2256 52.4522V52.7482H23.4576V52.4522C23.4576 51.7109 23.3163 51.1989 23.0336 50.9162C22.7509 50.6335 22.2389 50.4922 21.4976 50.4922H20.1856ZM27.8061 57.2282C27.4701 57.2282 27.3021 57.0602 27.3021 56.7242V49.9882C27.3021 49.6522 27.4701 49.4842 27.8061 49.4842C28.1421 49.4842 28.3101 49.6522 28.3101 49.9882V50.5802C28.8381 49.8495 29.7261 49.4842 30.9741 49.4842H31.4221C32.4461 49.4842 33.1954 49.7242 33.6701 50.2042C34.1501 50.6789 34.3901 51.4282 34.3901 52.4522V56.7242C34.3901 57.0602 34.2221 57.2282 33.8861 57.2282C33.5501 57.2282 33.3821 57.0602 33.3821 56.7242V52.4522C33.3821 51.7109 33.2381 51.1989 32.9501 50.9162C32.6674 50.6335 32.1581 50.4922 31.4221 50.4922H30.9741C30.2114 50.4922 29.5928 50.6042 29.1181 50.8282C28.6434 51.0522 28.3741 51.4015 28.3101 51.8762V56.7242C28.3101 57.0602 28.1421 57.2282 27.8061 57.2282ZM40.045 57.2282C39.0263 57.2282 38.277 56.9882 37.797 56.5082C37.317 56.0282 37.077 55.2789 37.077 54.2602V52.4522C37.077 51.4282 37.317 50.6789 37.797 50.2042C38.277 49.7242 39.0263 49.4842 40.045 49.4842H43.317V46.5802C43.317 46.2442 43.485 46.0762 43.821 46.0762C44.157 46.0762 44.325 46.2442 44.325 46.5802V56.7242C44.325 57.0602 44.157 57.2282 43.821 57.2282C43.485 57.2282 43.317 57.0602 43.317 56.7242V56.2282C43.0823 56.5535 42.749 56.8015 42.317 56.9722C41.885 57.1429 41.3303 57.2282 40.653 57.2282H40.045ZM40.045 56.2202H40.653C41.4423 56.2202 42.0823 56.1029 42.573 55.8682C43.069 55.6282 43.317 55.2709 43.317 54.7962V50.4922H40.045C39.309 50.4922 38.797 50.6362 38.509 50.9242C38.2263 51.2069 38.085 51.7162 38.085 52.4522V54.2602C38.085 54.9962 38.2263 55.5082 38.509 55.7962C38.797 56.0789 39.309 56.2202 40.045 56.2202ZM49.5989 57.2282C48.7509 57.2282 48.1242 57.0255 47.7189 56.6202C47.3135 56.2149 47.1109 55.5882 47.1109 54.7402C47.1109 53.8869 47.3135 53.2575 47.7189 52.8522C48.1242 52.4469 48.7509 52.2442 49.5989 52.2442H53.1589C53.1375 51.5882 52.9802 51.1322 52.6869 50.8762C52.3989 50.6202 51.9029 50.4922 51.1989 50.4922H50.2709C49.6415 50.4922 49.1775 50.5535 48.8789 50.6762C48.5855 50.7935 48.3962 50.9989 48.3109 51.2922C48.2575 51.4522 48.1909 51.5695 48.1109 51.6442C48.0362 51.7135 47.9215 51.7482 47.7669 51.7482C47.6015 51.7482 47.4709 51.7029 47.3749 51.6122C47.2842 51.5162 47.2522 51.3882 47.2789 51.2282C47.3802 50.6202 47.6762 50.1775 48.1669 49.9002C48.6575 49.6229 49.3589 49.4842 50.2709 49.4842H51.1989C52.2229 49.4842 52.9722 49.7242 53.4469 50.2042C53.9269 50.6789 54.1668 51.4282 54.1668 52.4522V56.7242C54.1668 57.0602 53.9989 57.2282 53.6629 57.2282C53.3269 57.2282 53.1589 57.0602 53.1589 56.7242V56.0682C52.6309 56.8415 51.7429 57.2282 50.4949 57.2282H49.5989ZM49.5989 56.2202H50.4949C50.9749 56.2202 51.4015 56.1695 51.7749 56.0682C52.1535 55.9669 52.4629 55.7989 52.7029 55.5642C52.9482 55.3295 53.1002 55.0122 53.1589 54.6122V53.2522H49.5989C49.0282 53.2522 48.6389 53.3562 48.4309 53.5642C48.2229 53.7722 48.1189 54.1642 48.1189 54.7402C48.1189 55.3109 48.2229 55.7002 48.4309 55.9082C48.6389 56.1162 49.0282 56.2202 49.5989 56.2202ZM59.2735 57.2362C59.1135 57.2362 58.9881 57.1935 58.8975 57.1082C58.8121 57.0175 58.7695 56.8922 58.7695 56.7322V47.7482H55.4655C55.3055 47.7482 55.1801 47.7055 55.0895 47.6202C55.0041 47.5295 54.9615 47.4042 54.9615 47.2442C54.9615 47.0842 55.0041 46.9615 55.0895 46.8762C55.1801 46.7855 55.3055 46.7402 55.4655 46.7402H63.0815C63.2415 46.7402 63.3641 46.7855 63.4495 46.8762C63.5401 46.9615 63.5855 47.0842 63.5855 47.2442C63.5855 47.4042 63.5401 47.5295 63.4495 47.6202C63.3641 47.7055 63.2415 47.7482 63.0815 47.7482H59.7775V56.7322C59.7775 56.8869 59.7321 57.0095 59.6415 57.1002C59.5561 57.1909 59.4335 57.2362 59.2735 57.2362ZM70.156 49.4842C70.492 49.4842 70.66 49.6522 70.66 49.9882V56.7242C70.66 57.0602 70.492 57.2282 70.156 57.2282C69.82 57.2282 69.652 57.0602 69.652 56.7242V56.1242C69.1293 56.8602 68.2413 57.2282 66.988 57.2282H66.54C65.5213 57.2282 64.772 56.9882 64.292 56.5082C63.812 56.0282 63.572 55.2789 63.572 54.2602V49.9882C63.572 49.6522 63.74 49.4842 64.076 49.4842C64.412 49.4842 64.58 49.6522 64.58 49.9882V54.2602C64.58 54.9962 64.7213 55.5082 65.004 55.7962C65.292 56.0789 65.804 56.2202 66.54 56.2202H66.988C67.7506 56.2202 68.3693 56.1082 68.844 55.8842C69.324 55.6549 69.5933 55.3055 69.652 54.8362V49.9882C69.652 49.6522 69.82 49.4842 70.156 49.4842ZM74.2748 57.2282C73.9389 57.2282 73.7709 57.0602 73.7709 56.7242V49.9882C73.7709 49.6522 73.9389 49.4842 74.2748 49.4842C74.6109 49.4842 74.7789 49.6522 74.7789 49.9882V51.0122C75.0722 50.5162 75.4749 50.1375 75.9869 49.8762C76.4989 49.6149 77.0989 49.4842 77.7869 49.4842C78.1229 49.4842 78.2909 49.6522 78.2909 49.9882C78.2909 50.3242 78.1229 50.4922 77.7869 50.4922C76.8482 50.4922 76.1229 50.6922 75.6109 51.0922C75.1042 51.4922 74.8269 52.0495 74.7789 52.7642V56.7242C74.7789 57.0602 74.6109 57.2282 74.2748 57.2282Z" fill="#D6D6D6"/>
<path d="M18 9.60617L44.4188 0.0683594V9.60618L18 13.8092V9.60617Z" fill="#F3A242"/>
<path d="M18 16.2108L44.4188 12.0078V18.6125L18 21.6146V16.2108Z" fill="#F3A242"/>
<path d="M18 24.0168L44.4188 21.2148V28.2198L18 29.4207V24.0168Z" fill="#F3A242"/>
<path d="M18 31.8219L44.4188 30.6211V37.2258H18V31.8219Z" fill="#F3A242"/>
<path d="M44.418 0L60.0291 9.20654V13.8098L44.418 9.60683V0Z" fill="#F3FBFF"/>
<path d="M44.418 12.0078L60.0291 16.2108V22.0149L44.418 18.6125V12.0078Z" fill="#F3FBFF"/>
<path d="M44.418 21.2148L60.0291 24.4171V29.4207L44.418 28.2198V21.2148Z" fill="#F3FBFF"/>
<path d="M44.418 30.6211L60.0291 31.822V37.2258H44.418V30.6211Z" fill="#F3FBFF"/>
</svg>
