<svg width="19" height="19" viewBox="0 0 19 19" fill="none" xmlns="http://www.w3.org/2000/svg">
<path d="M18.0492 9.5C18.5743 9.5 19.0049 9.07327 18.9525 8.5508C18.8599 7.62886 18.6327 6.7237 18.2769 5.86451C17.7994 4.71191 17.0997 3.66464 16.2175 2.78249C15.3354 1.90033 14.2881 1.20056 13.1355 0.723144C12.2763 0.367257 11.3711 0.140118 10.4492 0.0475384C9.92673 -0.00492771 9.5 0.425678 9.5 0.950778V0.950778C9.5 1.47588 9.92731 1.89543 10.4483 1.96096C11.1203 2.04549 11.7794 2.21967 12.4078 2.47995C13.3297 2.86181 14.1673 3.42151 14.8729 4.12709C15.5785 4.83267 16.1382 5.67032 16.52 6.5922C16.7803 7.22057 16.9545 7.87969 17.039 8.55169C17.1046 9.07269 17.5241 9.5 18.0492 9.5V9.5Z" fill="black"/>
</svg>
