<svg width="20" height="20" viewBox="0 0 20 20" fill="none" xmlns="http://www.w3.org/2000/svg">
<g clip-path="url(#clip0_1319_46)">
<path d="M17.2106 19.375H17.088C2.91733 18.5601 0.905306 6.60337 0.624056 2.95433C0.601394 2.67061 0.634938 2.38521 0.722764 2.11448C0.810591 1.84375 0.950975 1.59301 1.13587 1.37662C1.32077 1.16024 1.54655 0.982467 1.80027 0.85349C2.05399 0.724513 2.33066 0.646867 2.61444 0.625001H6.588C6.87686 0.624721 7.15915 0.711186 7.39831 0.873194C7.63747 1.0352 7.82247 1.26529 7.92935 1.53365L9.0255 4.23077C9.13104 4.49294 9.15723 4.78035 9.10082 5.05728C9.04441 5.33421 8.90788 5.58847 8.70819 5.78846L7.17213 7.33894C7.41207 8.70246 8.06505 9.95938 9.04273 10.9396C10.0204 11.9199 11.2756 12.5762 12.6385 12.8197L14.2034 11.2692C14.4064 11.0717 14.663 10.9384 14.9413 10.8858C15.2196 10.8332 15.5072 10.8638 15.7683 10.9736L18.487 12.0625C18.7514 12.1728 18.9769 12.3592 19.1348 12.5981C19.2928 12.837 19.3761 13.1175 19.3741 13.4038V17.2115C19.3741 17.7853 19.1461 18.3356 18.7404 18.7413C18.3347 19.1471 17.7844 19.375 17.2106 19.375ZM2.78752 2.06731C2.59626 2.06731 2.41283 2.14329 2.27759 2.27853C2.14234 2.41377 2.06636 2.5972 2.06636 2.78846V2.84615C2.39809 7.11539 4.5255 17.2115 17.1673 17.9327C17.2621 17.9385 17.357 17.9256 17.4468 17.8947C17.5365 17.8638 17.6193 17.8154 17.6903 17.7525C17.7613 17.6895 17.8192 17.6131 17.8606 17.5277C17.9021 17.4423 17.9262 17.3496 17.9317 17.2548V13.4038L15.213 12.3149L13.1433 14.3702L12.7971 14.3269C6.52309 13.5409 5.67213 7.26683 5.67213 7.20192L5.62886 6.85577L7.67694 4.78606L6.59521 2.06731H2.78752Z" fill="white"/>
</g>
<defs>
<clipPath id="clip0_1319_46">
<rect width="20" height="20" fill="white"/>
</clipPath>
</defs>
</svg>
